<?xml version="1.0" standalone="no"?>
<!DOCTYPE svg PUBLIC "-//W3C//DTD SVG 20010904//EN"
 "http://www.w3.org/TR/2001/REC-SVG-20010904/DTD/svg10.dtd">
<svg version="1.0" xmlns="http://www.w3.org/2000/svg"
 width="500.000000pt" height="500.000000pt" viewBox="0 0 500.000000 500.000000"
 preserveAspectRatio="xMidYMid meet">

<g transform="translate(0.000000,500.000000) scale(0.100000,-0.100000)"
fill="#000000" stroke="none">
<path d="M2273 4980 c-987 -96 -1814 -750 -2132 -1686 -90 -265 -125 -488
-125 -794 1 -240 12 -343 59 -556 198 -880 886 -1599 1759 -1839 429 -117 884
-119 1314 -5 393 105 778 324 1081 614 309 296 560 722 671 1138 131 493 108
1033 -65 1504 -53 146 -173 383 -260 514 -98 147 -164 228 -300 369 -382 394
-877 644 -1437 726 -126 19 -440 27 -565 15z m602 -64 c953 -155 1713 -832
1975 -1758 63 -221 83 -381 84 -648 1 -289 -23 -465 -96 -709 -270 -909 -1046
-1578 -1993 -1717 -181 -27 -534 -25 -721 4 -739 115 -1392 568 -1756 1220
-139 249 -238 533 -283 817 -25 155 -31 491 -11 659 64 549 301 1041 690 1432
178 178 310 282 509 398 282 165 623 278 952 316 123 13 532 5 650 -14z"/>
<path d="M2377 4568 c-32 -73 -57 -136 -57 -140 0 -5 9 -8 20 -8 13 0 25 12
34 35 l15 35 71 0 c70 0 71 0 81 -30 8 -22 17 -30 35 -30 13 0 24 2 24 5 0 3
-29 64 -65 135 -48 96 -70 130 -83 130 -14 0 -32 -31 -75 -132z m103 16 c11
-26 20 -48 20 -50 0 -2 -20 -4 -45 -4 -43 0 -44 1 -35 25 6 14 14 36 20 50 5
14 12 25 14 25 3 0 14 -21 26 -46z"/>
<path d="M2220 4680 c-9 -5 -27 -32 -40 -59 -13 -28 -27 -51 -31 -51 -3 0 -23
18 -43 40 -27 31 -43 40 -68 40 l-31 0 65 -68 c61 -62 66 -71 72 -125 7 -52
10 -57 32 -57 25 0 25 0 18 68 -5 57 -3 75 14 108 54 105 56 131 12 104z"/>
<path d="M2695 4577 c-23 -157 -23 -152 1 -155 23 -3 26 5 40 116 4 28 10 52
13 52 4 0 32 -44 63 -97 79 -139 89 -138 111 19 21 151 21 148 -3 148 -20 0
-23 -10 -38 -114 -4 -27 -11 -50 -17 -50 -5 -1 -34 43 -64 97 -74 131 -83 130
-106 -16z"/>
<path d="M1878 4613 c-22 -5 -21 -1 -3 -53 8 -23 15 -48 15 -56 0 -10 -64 -35
-124 -47 -5 -1 -17 21 -26 48 -14 39 -21 49 -36 47 -10 -2 -21 -6 -24 -9 -5
-4 67 -222 81 -244 3 -6 16 -8 27 -5 21 7 21 7 2 61 -22 63 -23 62 67 88 l52
16 18 -55 c17 -54 26 -62 52 -45 11 7 6 32 -29 135 -23 69 -45 125 -48 125 -4
-1 -15 -3 -24 -6z"/>
<path d="M3081 4565 c-37 -32 -66 -104 -57 -142 16 -64 74 -107 156 -115 31
-3 36 1 52 33 33 70 33 87 2 99 -41 16 -66 17 -71 3 -3 -7 7 -17 22 -23 22 -8
26 -15 21 -33 -3 -12 -6 -25 -6 -29 0 -15 -56 -8 -87 12 -30 18 -33 24 -33 69
0 63 35 111 82 111 35 0 98 -28 98 -43 0 -6 7 -4 17 5 20 21 8 38 -41 62 -53
25 -119 21 -155 -9z"/>
<path d="M1403 4409 c-8 -8 1 -29 34 -81 25 -38 42 -72 39 -76 -4 -3 -53 10
-109 30 -150 52 -154 46 -65 -95 38 -61 71 -113 72 -114 2 -2 10 3 20 10 17
12 15 17 -23 78 -39 60 -51 95 -33 87 5 -1 54 -19 110 -38 139 -47 142 -41 55
96 -38 59 -73 109 -79 111 -5 2 -15 -2 -21 -8z"/>
<path d="M3559 4392 c-9 -15 -33 -54 -53 -86 -56 -92 -46 -145 34 -186 76 -39
107 -23 180 91 27 44 50 82 50 84 0 2 -9 9 -19 15 -17 9 -25 1 -66 -64 -25
-41 -53 -80 -61 -86 -37 -32 -104 0 -104 49 0 14 20 60 45 101 25 41 45 78 45
82 0 4 -8 12 -18 17 -14 7 -21 4 -33 -17z"/>
<path d="M1100 4195 c-14 -17 -18 -11 68 -108 51 -57 54 -97 10 -130 -24 -18
-30 -18 -58 -7 -17 7 -34 18 -38 25 -4 7 -28 36 -55 65 -39 44 -50 50 -62 40
-8 -7 -15 -16 -15 -20 0 -4 28 -38 62 -75 95 -104 140 -113 209 -44 44 44 51
86 21 130 -23 35 -116 139 -123 139 -4 0 -12 -7 -19 -15z"/>
<path d="M3829 4147 c-125 -138 -124 -137 -107 -153 14 -14 21 -9 68 45 49 56
85 79 76 49 -3 -7 -7 -59 -10 -116 -9 -153 -4 -151 164 41 29 34 31 40 18 53
-13 14 -21 9 -67 -45 -29 -34 -57 -61 -63 -61 -6 0 -7 42 -3 113 10 150 1 158
-76 74z"/>
<path d="M2365 4180 c-276 -23 -571 -125 -794 -275 -318 -213 -555 -525 -671
-881 -58 -178 -81 -325 -82 -514 -1 -175 10 -265 53 -429 82 -319 240 -582
492 -820 101 -96 73 -45 -39 72 -224 230 -358 468 -434 769 -83 331 -58 708
67 1013 135 328 354 593 642 780 87 56 289 154 381 184 202 66 483 95 694 72
173 -19 395 -81 528 -147 49 -25 78 -30 78 -15 0 12 -202 96 -302 125 -132 38
-229 56 -362 66 -66 5 -130 9 -141 8 -11 0 -60 -4 -110 -8z"/>
<path d="M830 3935 c-11 -13 -8 -20 21 -45 19 -16 37 -29 42 -30 15 0 6 -24
-30 -71 -21 -26 -42 -48 -48 -48 -5 0 -28 13 -49 29 -30 23 -42 27 -53 19 -7
-6 -13 -15 -13 -19 0 -8 185 -159 204 -166 6 -2 16 4 23 15 10 16 6 23 -33 52
-24 18 -44 34 -44 36 0 7 82 113 87 113 3 0 22 -13 43 -30 43 -34 53 -36 69
-16 10 12 -7 29 -91 95 -57 44 -106 81 -109 81 -4 0 -12 -7 -19 -15z"/>
<path d="M4050 3868 c-52 -44 -96 -86 -98 -93 -2 -6 3 -17 11 -23 10 -9 35 8
115 77 94 83 100 90 84 105 -16 14 -25 9 -112 -66z"/>
<path d="M4168 3714 c-104 -168 -104 -168 84 -138 77 12 142 25 146 28 3 4 -1
14 -10 22 -14 15 -25 14 -117 -2 -55 -9 -104 -15 -107 -12 -3 4 20 44 50 90
60 89 63 96 44 120 -11 14 -24 -1 -90 -108z"/>
<path d="M3610 3745 c0 -3 43 -51 95 -106 418 -442 559 -1085 365 -1669 -67
-200 -182 -400 -328 -565 -459 -525 -1200 -701 -1859 -444 -117 46 -162 47
-63 2 233 -107 464 -150 744 -140 251 9 445 57 661 162 481 233 819 668 926
1190 26 130 36 388 20 521 -46 375 -217 728 -481 992 -55 55 -80 73 -80 57z"/>
<path d="M618 3628 c-29 -23 -58 -82 -58 -118 0 -50 33 -98 83 -120 54 -25 84
-25 124 0 36 21 60 54 72 96 10 37 4 54 -20 54 -15 0 -19 -7 -19 -31 0 -36
-47 -89 -80 -89 -37 0 -97 38 -107 67 -13 37 1 87 30 110 24 18 25 43 3 43 -7
0 -19 -6 -28 -12z"/>
<path d="M4323 3445 l-113 -54 37 -78 c20 -43 37 -79 38 -81 1 -1 9 0 18 3 13
6 12 14 -9 62 -14 31 -23 61 -20 68 2 7 19 17 36 23 31 11 31 11 56 -43 14
-30 29 -55 34 -55 19 0 19 20 0 61 -26 58 -25 66 9 83 34 18 40 14 70 -57 19
-45 34 -57 45 -38 8 13 -63 161 -77 160 -7 0 -63 -25 -124 -54z"/>
<path d="M417 3213 c-20 -19 0 -34 71 -56 42 -13 77 -28 77 -33 0 -5 -45 -27
-100 -50 -137 -56 -136 -68 10 -110 132 -39 145 -40 145 -15 0 19 -28 31 -132
56 -16 4 -28 11 -28 15 0 7 111 57 181 82 15 5 29 18 32 28 4 15 -13 23 -118
54 -136 40 -129 39 -138 29z"/>
<path d="M4460 3185 c-58 -19 -113 -34 -123 -34 -14 -1 -17 -6 -11 -23 9 -31
7 -31 54 -18 53 14 70 8 70 -27 0 -18 -13 -40 -40 -68 -30 -30 -38 -45 -34
-63 4 -12 10 -22 14 -22 10 0 66 63 72 82 4 10 9 9 25 -4 46 -42 133 -6 133
54 0 33 -38 158 -48 157 -4 0 -54 -16 -112 -34z m109 -71 c13 -46 0 -74 -34
-74 -25 0 -38 16 -49 63 -5 23 -2 29 16 37 43 17 57 12 67 -26z"/>
<path d="M1234 3153 c2 -5 171 -111 375 -238 l370 -230 3 -420 3 -420 510 0
510 0 3 168 2 167 -445 0 -445 0 0 490 0 490 -446 0 c-245 0 -443 -3 -440 -7z"/>
<path d="M3010 2919 c0 -189 3 -239 13 -233 54 32 734 459 741 465 6 5 -158 9
-372 9 l-382 0 0 -241z"/>
<path d="M4552 2857 c-15 -16 -25 -43 -30 -82 -8 -68 -30 -91 -59 -62 -13 13
-18 34 -18 80 0 48 -3 62 -15 62 -10 0 -18 -16 -24 -46 -17 -88 45 -174 108
-149 32 12 38 24 51 100 9 55 14 65 32 68 34 5 57 -38 49 -93 -6 -37 -4 -45 9
-45 44 0 41 116 -5 162 -35 34 -69 36 -98 5z"/>
<path d="M368 2834 c-80 -43 -77 -188 5 -231 42 -22 117 -22 151 0 83 55 84
176 1 227 -39 24 -117 26 -157 4z m150 -67 c30 -27 29 -71 -3 -102 -42 -42
-123 -28 -154 26 -19 35 0 84 38 98 36 13 91 3 119 -22z"/>
<path d="M4428 2535 c4 -25 5 -25 116 -25 130 0 156 5 156 31 0 18 -10 19
-139 19 l-138 0 5 -25z"/>
<path d="M363 2460 c-131 -79 -41 -275 111 -240 91 20 135 125 84 200 -13 19
-35 40 -48 47 -38 19 -110 16 -147 -7z m151 -61 c26 -24 25 -75 -1 -101 -32
-31 -101 -35 -135 -8 -31 24 -38 73 -15 104 27 37 115 40 151 5z"/>
<path d="M4665 2407 c-2 -6 -6 -29 -10 -50 -4 -26 -11 -37 -19 -34 -7 3 -59 8
-114 12 l-102 8 0 -25 c0 -25 3 -26 83 -32 45 -4 96 -9 114 -13 32 -5 32 -6
26 -49 -5 -40 -4 -44 15 -44 17 0 21 8 26 63 4 34 9 85 12 113 5 41 3 52 -10
57 -10 4 -18 1 -21 -6z"/>
<path d="M514 2130 c-32 -13 -37 -27 -44 -105 -4 -62 -7 -70 -27 -73 -30 -4
-53 33 -53 86 0 36 -3 43 -17 40 -24 -4 -29 -65 -9 -111 19 -47 56 -71 97 -62
38 9 58 49 57 118 -1 54 11 72 41 62 25 -8 45 -73 36 -116 -6 -24 -3 -29 13
-29 47 0 34 120 -18 172 -30 29 -41 32 -76 18z"/>
<path d="M4570 2058 c-73 -29 -76 -29 -132 -15 -61 15 -68 14 -68 -14 0 -17
50 -39 90 -39 8 0 45 -33 82 -72 64 -69 68 -71 68 -45 0 18 -13 45 -35 71 -19
24 -35 45 -35 48 0 3 21 13 48 23 59 22 72 32 72 56 0 23 1 24 -90 -13z"/>
<path d="M702 1418 c-40 -50 11 -118 66 -89 49 26 29 101 -27 101 -16 0 -33
-6 -39 -12z"/>
<path d="M4216 1414 c-20 -20 -20 -43 0 -72 18 -27 55 -29 77 -4 34 37 11 92
-38 92 -13 0 -31 -7 -39 -16z"/>
<path d="M3678 1004 c-85 -67 -108 -94 -79 -94 5 0 42 27 84 60 41 33 79 60
84 60 6 0 37 -34 69 -75 33 -42 65 -74 73 -73 8 2 14 8 13 13 -1 11 -134 184
-142 185 -3 0 -49 -34 -102 -76z"/>
<path d="M1235 1024 c-49 -7 -91 -13 -92 -13 -2 -1 -3 -8 -3 -17 0 -13 8 -15
38 -10 20 3 58 8 83 12 l47 6 12 -86 c9 -61 16 -86 26 -86 8 0 14 9 14 20 0
35 -22 175 -29 181 -3 3 -46 0 -96 -7z"/>
<path d="M1056 972 c-5 -8 57 -62 118 -104 6 -4 -2 -21 -17 -41 -22 -29 -24
-37 -12 -47 11 -9 18 -5 36 19 13 17 28 31 33 31 6 0 36 -20 67 -44 52 -41 69
-47 69 -25 0 8 -254 207 -275 215 -7 3 -16 1 -19 -4z"/>
<path d="M3777 913 c-12 -12 -8 -20 40 -79 l47 -57 -23 -18 c-13 -11 -26 -19
-30 -19 -3 0 -27 27 -51 60 -25 33 -49 60 -53 60 -24 0 -13 -35 28 -87 l46
-58 -30 -25 c-19 -16 -27 -30 -22 -38 5 -9 50 22 149 99 124 98 154 129 123
129 -5 0 -31 -18 -59 -40 l-50 -40 -48 60 c-47 60 -55 66 -67 53z"/>
<path d="M1026 846 c-20 -24 -36 -48 -35 -53 0 -4 36 -35 80 -68 122 -91 119
-89 130 -78 6 6 -19 32 -75 74 -47 35 -86 68 -86 73 0 5 11 24 25 42 20 26 22
34 11 43 -10 9 -21 2 -50 -33z"/>
<path d="M3343 823 c-20 -7 -16 -24 26 -119 24 -54 47 -90 57 -92 19 -4 17 16
-7 77 -9 21 -10 35 -4 38 24 8 37 22 31 31 -5 8 -15 8 -32 2 -23 -9 -26 -7
-42 29 -10 22 -22 36 -29 34z"/>
<path d="M1574 808 c-8 -12 22 -38 43 -38 30 0 9 -30 -47 -66 -33 -22 -60 -42
-60 -46 0 -21 25 -15 72 17 29 19 56 35 60 35 7 0 12 -22 23 -97 5 -29 12 -43
22 -43 16 0 16 10 -3 129 -7 41 -6 44 12 36 62 -25 90 -9 34 20 -17 9 -30 23
-30 35 0 27 -21 36 -36 15 -13 -18 -16 -18 -49 -2 -24 12 -36 13 -41 5z"/>
<path d="M3153 753 c-8 -3 -11 -14 -7 -27 4 -19 -1 -25 -36 -39 -39 -15 -48
-37 -14 -37 8 0 14 -10 14 -24 0 -14 12 -38 26 -55 21 -25 34 -31 65 -31 85 0
135 95 80 154 -14 15 -19 26 -12 31 6 3 11 12 11 20 0 12 -8 11 -45 -3 -41
-15 -46 -15 -57 0 -7 9 -19 14 -25 11z m96 -87 c20 -23 9 -69 -18 -83 -29 -14
-55 -4 -71 28 -26 47 55 96 89 55z"/>
<path d="M1840 698 c-22 -56 -28 -59 -65 -44 -28 12 -34 12 -39 1 -3 -8 7 -18
25 -25 16 -7 32 -16 34 -20 3 -5 -8 -38 -25 -75 -29 -65 -31 -85 -7 -85 11 0
118 241 118 265 0 25 -29 13 -41 -17z"/>
<path d="M2138 643 c-3 -14 -12 -17 -51 -14 -37 2 -47 -1 -47 -13 0 -9 7 -16
16 -16 12 0 14 -5 9 -17 -36 -84 2 -143 91 -143 24 0 43 8 61 26 22 22 25 32
20 70 -4 38 -2 44 14 44 11 0 19 7 19 15 0 10 -10 15 -29 15 -42 0 -61 10 -61
31 0 24 -37 26 -42 2z m46 -79 c41 -40 -7 -109 -59 -86 -14 6 -27 23 -31 37
-13 50 53 86 90 49z"/>
<path d="M2872 603 c3 -56 2 -58 -24 -61 -25 -3 -27 -1 -33 52 -6 46 -11 56
-26 56 -23 0 -23 11 1 -179 29 -226 28 -221 50 -221 16 0 19 5 15 28 -10 56
-25 184 -25 208 0 22 4 25 28 22 27 -3 27 -4 42 -123 12 -99 18 -120 33 -123
22 -4 22 17 -6 228 -19 142 -25 165 -41 168 -16 3 -18 -2 -14 -55z"/>
<path d="M2335 618 c-2 -7 -6 -38 -9 -68 -4 -30 -9 -74 -12 -97 -6 -39 -4 -43
15 -43 16 0 21 6 21 25 0 21 5 25 30 25 20 0 30 5 30 15 0 9 -10 15 -26 15
-22 0 -25 4 -22 28 2 21 9 28 31 30 35 4 37 32 2 32 -20 0 -25 5 -25 25 0 26
-27 36 -35 13z"/>
<path d="M2635 613 c-78 -10 -73 3 -56 -135 l16 -123 60 3 c81 3 116 13 106
30 -6 10 -21 11 -65 4 -31 -5 -59 -6 -61 -2 -6 10 -25 131 -25 161 0 25 4 27
55 34 38 4 55 11 55 21 0 14 -18 16 -85 7z"/>
<path d="M3350 532 c-123 -53 -116 -50 -103 -63 6 -6 36 2 92 26 46 19 88 35
95 35 7 0 20 -18 29 -40 14 -37 47 -56 47 -27 0 13 -47 118 -52 116 -2 0 -50
-21 -108 -47z"/>
<path d="M1541 509 c-12 -28 -21 -55 -19 -61 5 -13 208 -99 219 -92 16 9 10
22 -13 30 -13 4 -56 22 -95 40 l-73 33 19 45 c17 39 18 45 4 50 -8 3 -16 6
-18 6 -1 0 -12 -23 -24 -51z"/>
<path d="M2155 386 c-35 -35 -41 -69 -18 -108 50 -87 187 -58 187 39 0 79
-113 125 -169 69z m103 -22 c41 -28 18 -104 -31 -104 -53 0 -77 75 -35 104 12
9 27 16 33 16 6 0 21 -7 33 -16z"/>
</g>
</svg>
